<?xml version="1.0" standalone="no"?>
<!DOCTYPE svg PUBLIC "-//W3C//DTD SVG 20010904//EN"
 "http://www.w3.org/TR/2001/REC-SVG-20010904/DTD/svg10.dtd">
<svg version="1.0" xmlns="http://www.w3.org/2000/svg"
 width="512.000000pt" height="512.000000pt" viewBox="0 0 512.000000 512.000000"
 preserveAspectRatio="xMidYMid meet">

<g transform="translate(0.000000,512.000000) scale(0.100000,-0.100000)"
fill="#000000" stroke="none">
<path d="M2307 5010 c-402 -46 -785 -185 -1107 -401 -156 -105 -235 -170 -369
-302 -373 -368 -612 -830 -702 -1358 -20 -116 -23 -168 -23 -389 0 -221 3
-273 23 -389 168 -981 876 -1754 1826 -1996 220 -56 340 -70 605 -70 261 0
372 13 590 66 399 99 787 308 1080 584 235 221 400 442 535 720 121 247 191
468 231 730 26 170 26 542 0 710 -41 267 -109 482 -231 730 -234 479 -605 857
-1080 1101 -243 125 -449 194 -715 241 -119 20 -185 26 -365 28 -121 2 -255 0
-298 -5z m153 -685 l0 -485 -27 0 c-68 0 -328 22 -433 35 -108 15 -292 45
-297 50 -2 1 13 41 33 90 96 240 228 450 369 590 93 93 161 139 262 181 103
42 93 91 93 -461z m345 436 c179 -89 337 -264 480 -534 51 -96 139 -297 132
-303 -4 -5 -237 -42 -332 -53 -89 -11 -344 -31 -397 -31 l-28 0 0 486 0 487
33 -7 c17 -3 68 -24 112 -45z m-867 -38 c-8 -10 -34 -40 -57 -68 -112 -130
-256 -382 -336 -588 l-39 -98 -30 6 c-63 13 -364 118 -440 154 l-80 37 115 98
c216 186 478 339 740 431 141 50 147 51 127 28z m1358 -23 c260 -89 533 -247
753 -436 l115 -98 -80 -37 c-76 -36 -377 -141 -440 -154 l-30 -6 -39 98 c-84
213 -223 457 -336 588 -68 79 -72 85 -67 85 3 0 59 -18 124 -40z m-2342 -750
c120 -55 422 -160 462 -160 26 0 24 -22 -10 -157 -61 -245 -104 -549 -121
-855 l-7 -118 -490 0 -491 0 7 91 c31 415 214 879 475 1207 l42 52 32 -14 c17
-8 63 -28 101 -46z m3488 -134 c125 -188 232 -415 292 -624 44 -155 86 -394
86 -494 l0 -38 -489 0 -489 0 -7 118 c-17 306 -60 610 -121 855 -35 136 -36
157 -9 157 43 0 348 108 485 171 l105 49 33 -37 c19 -21 70 -91 114 -157z
m-2641 -110 c166 -29 438 -56 550 -56 43 0 84 -3 93 -6 14 -5 16 -58 16 -495
l0 -489 -491 0 -492 0 7 142 c13 265 52 531 113 781 21 86 41 147 48 147 6 0
76 -11 156 -24z m1722 -123 c62 -253 100 -517 113 -781 l7 -142 -492 0 -491 0
0 489 c0 437 2 490 16 495 9 3 50 6 92 6 112 0 387 28 537 54 202 36 176 50
218 -121z m-2238 -1240 c17 -307 60 -611 121 -856 34 -135 36 -157 10 -157
-45 0 -348 -107 -493 -175 l-98 -45 -33 37 c-70 78 -198 283 -268 428 -126
262 -200 528 -220 794 l-7 91 491 0 490 0 7 -117z m1175 -372 l0 -489 -22 -6
c-13 -3 -55 -6 -94 -6 -107 0 -381 -28 -543 -56 -80 -13 -150 -24 -156 -24 -7
0 -27 61 -48 148 -61 249 -100 515 -113 780 l-7 142 492 0 491 0 0 -489z
m1176 347 c-13 -264 -51 -528 -113 -780 -21 -87 -41 -148 -48 -148 -6 0 -76
11 -156 24 -166 29 -438 56 -550 56 -43 0 -84 3 -93 6 -14 5 -16 58 -16 495
l0 489 491 0 492 0 -7 -142z m1184 104 c0 -101 -43 -345 -86 -492 -80 -272
-228 -560 -393 -768 l-42 -52 -32 14 c-17 8 -77 34 -132 59 -102 45 -348 131
-410 143 -20 3 -38 10 -41 15 -3 5 11 71 30 146 61 243 104 548 121 856 l7
117 489 0 489 0 0 -38z m-2360 -1628 l0 -487 -32 7 c-57 10 -190 83 -259 139
-119 99 -233 249 -334 440 -50 94 -139 297 -133 303 5 4 245 42 338 54 90 12
279 26 368 29 l52 1 0 -486z m395 476 c77 -5 181 -15 230 -21 95 -11 328 -48
332 -53 7 -6 -81 -207 -132 -303 -101 -191 -215 -341 -334 -440 -69 -56 -202
-129 -258 -139 l-33 -7 0 487 0 486 28 0 c15 0 90 -5 167 -10z m-1310 -217
c84 -215 222 -454 349 -603 30 -35 54 -66 52 -67 -9 -9 -261 88 -381 147 -205
100 -372 214 -559 382 l-50 44 105 46 c114 50 386 142 435 147 6 0 28 -43 49
-96z m2295 30 c91 -30 201 -71 244 -92 l80 -37 -115 -98 c-220 -189 -493 -347
-753 -436 -65 -22 -120 -39 -122 -37 -2 1 22 32 52 67 128 150 261 381 349
603 l39 98 30 -6 c17 -4 105 -31 196 -62z"/>
</g>
</svg>
